<?xml version="1.0" encoding="utf-8"?>
<!-- Generator: Adobe Illustrator 16.0.0, SVG Export Plug-In . SVG Version: 6.00 Build 0)  -->
<!DOCTYPE svg PUBLIC "-//W3C//DTD SVG 1.1//EN" "http://www.w3.org/Graphics/SVG/1.1/DTD/svg11.dtd">
<svg version="1.1" id="Layer_1" xmlns="http://www.w3.org/2000/svg" xmlns:xlink="http://www.w3.org/1999/xlink" x="0px" y="0px"
	 width="960px" height="560px" viewBox="0 0 960 560" enable-background="new 0 0 960 560" xml:space="preserve">
<g>
	<g>
		<path fill-rule="evenodd" clip-rule="evenodd" fill="#D8D8D8" d="M482.117,1.868c157.428,0,314.855,0.049,472.283-0.179
			c6.392-0.009,7.655,1.252,7.646,7.646c-0.229,159.294-0.229,318.59,0,477.884c0.009,6.392-1.255,7.647-7.646,7.644
			c-314.854-0.202-629.71-0.202-944.565,0c-6.39,0.004-7.656-1.25-7.646-7.644c0.228-159.294,0.228-318.59,0-477.884
			C2.18,2.944,3.442,1.681,9.834,1.689C167.261,1.917,324.689,1.868,482.117,1.868z"/>
		<path fill-rule="evenodd" clip-rule="evenodd" fill="#FEFEFE" d="M728.527,363.981c0-32.959,0.201-65.923-0.154-98.88
			c-0.079-7.427,2.267-9.525,9.575-9.498c66.542,0.241,133.087,0.248,199.63-0.007c7.42-0.027,9.523,2.262,9.496,9.571
			c-0.24,66.542-0.248,133.087,0.008,199.629c0.027,7.418-2.263,9.523-9.571,9.496c-66.541-0.241-133.086-0.248-199.628,0.007
			c-7.42,0.027-9.574-2.257-9.502-9.57C728.714,431.149,728.527,397.564,728.527,363.981z"/>
		<path fill-rule="evenodd" clip-rule="evenodd" fill="#FEFEFE" d="M239.441,364.942c0,33.272-0.193,66.546,0.149,99.813
			c0.076,7.363-2.161,9.569-9.533,9.54c-65.92-0.25-131.843-0.248-197.763,0c-7.356,0.027-9.566-2.159-9.538-9.529
			c0.248-66.542,0.247-133.087,0.001-199.629c-0.027-7.356,2.156-9.567,9.528-9.538c65.92,0.25,131.842,0.248,197.762,0
			c7.357-0.027,9.62,2.153,9.543,9.531C239.246,298.398,239.441,331.671,239.441,364.942z"/>
		<path fill-rule="evenodd" clip-rule="evenodd" fill="#FEFEFE" d="M258.11,363.994c0-32.961,0.2-65.925-0.152-98.88
			c-0.08-7.407,2.233-9.54,9.562-9.512c65.92,0.244,131.842,0.25,197.762-0.003c7.4-0.029,9.537,2.229,9.511,9.556
			c-0.245,66.542-0.248,133.087,0.003,199.629c0.028,7.399-2.228,9.538-9.556,9.511c-65.921-0.244-131.842-0.25-197.762,0.004
			c-7.4,0.028-9.589-2.225-9.515-9.559C258.299,431.16,258.11,397.575,258.11,363.994z"/>
		<path fill-rule="evenodd" clip-rule="evenodd" fill="#FEFEFE" d="M837.749,237.075c-33.271,0-66.545-0.189-99.813,0.149
			c-7.338,0.075-9.584-2.12-9.556-9.518c0.252-65.921,0.248-131.842,0.003-197.763c-0.027-7.332,2.116-9.582,9.513-9.554
			c66.542,0.251,133.087,0.248,199.629,0.004c7.33-0.027,9.584,2.116,9.555,9.512c-0.252,65.921-0.248,131.841-0.004,197.762
			c0.027,7.332-2.111,9.638-9.515,9.56C904.294,236.878,871.021,237.075,837.749,237.075z"/>
		<path fill-rule="evenodd" clip-rule="evenodd" fill="#FEFEFE" d="M239.441,129.772c0,32.649-0.203,65.303,0.154,97.947
			c0.082,7.429-2.27,9.525-9.576,9.498c-65.92-0.242-131.842-0.248-197.762,0.007c-7.421,0.029-9.523-2.264-9.496-9.571
			c0.242-65.92,0.249-131.841-0.007-197.762c-0.028-7.421,2.264-9.523,9.571-9.496c65.921,0.243,131.843,0.248,197.763-0.007
			c7.421-0.029,9.574,2.259,9.501,9.573C239.253,63.228,239.441,96.501,239.441,129.772z"/>
		<path fill-rule="evenodd" clip-rule="evenodd" fill="#FEFEFE" d="M709.858,364.984c0,33.271-0.201,66.544,0.153,99.813
			c0.08,7.431-2.274,9.521-9.578,9.494c-65.92-0.242-131.842-0.248-197.763,0.007c-7.425,0.029-9.52-2.271-9.493-9.574
			c0.24-66.54,0.248-133.085-0.008-199.627c-0.028-7.425,2.27-9.521,9.573-9.494c65.92,0.242,131.842,0.248,197.763-0.007
			c7.425-0.029,9.572,2.266,9.498,9.574C709.67,298.438,709.858,331.713,709.858,364.984z"/>
		<path fill-rule="evenodd" clip-rule="evenodd" fill="#FEFEFE" d="M493.318,127.849c0-32.65,0.202-65.301-0.151-97.947
			c-0.081-7.41,2.239-9.536,9.563-9.508c65.92,0.244,131.842,0.25,197.762-0.004c7.404-0.029,9.535,2.235,9.508,9.558
			c-0.243,65.92-0.248,131.843,0.006,197.762c0.028,7.405-2.235,9.536-9.56,9.509c-65.92-0.244-131.842-0.25-197.762,0.003
			c-7.404,0.029-9.587-2.229-9.514-9.56C493.509,194.395,493.318,161.122,493.318,127.849z"/>
		<path fill-rule="evenodd" clip-rule="evenodd" fill="#FEFEFE" d="M474.649,129.774c0,32.65-0.203,65.301,0.154,97.947
			c0.081,7.429-2.271,9.523-9.577,9.496c-65.92-0.242-131.841-0.248-197.762,0.007c-7.421,0.029-9.522-2.266-9.495-9.571
			c0.242-65.92,0.248-131.843-0.007-197.762c-0.029-7.423,2.266-9.523,9.572-9.496c65.92,0.243,131.841,0.248,197.762-0.007
			c7.422-0.029,9.573,2.261,9.5,9.573C474.462,63.228,474.649,96.503,474.649,129.774z"/>
		<path fill-rule="evenodd" clip-rule="evenodd" fill="#B8B8B8" d="M843.758,323.116c10.575,0.005,21.151,0.072,31.726-0.027
			c4.379-0.042,6.078,1.13,5.021,6.064c-3.972,18.509-7.617,37.091-11.151,55.69c-0.863,4.543-3.155,7.044-7.459,8.409
			c-10.07,3.19-20.063,6.625-30.092,9.948c-2.366,0.784-4.627,1.356-7.216,0.313c-9.224-3.719-18.489-7.349-27.836-10.746
			c-3.624-1.318-5.203-3.187-3.613-6.92c1.878-4.406-0.963-11.803,6.816-12.4c3.62-0.277,8.477-2.753,10.786,3.717
			c2.698,7.559,10.959,7.258,17.014,9.387c9.663,3.398,26.718-6.34,28.83-15.016c1.455-5.973-0.376-7.85-6.285-7.753
			c-14.305,0.229-28.621,0.278-42.919-0.09c-3.192-0.084-9.518,3.056-8.94-4.021c0.454-5.574,0.023-12.773,9.931-12.256
			c13.648,0.715,27.363,0.179,41.048,0.173c2.178,0,4.357-0.095,6.532-0.021c3.822,0.13,6.188-1.811,5.98-5.458
			c-0.206-3.632-3.638-2.669-5.891-2.684c-14.618-0.099-29.239,0.078-43.855-0.154c-3.467-0.055-9.341,2.114-8.698-4.771
			c0.512-5.485,0.195-12.146,9.488-11.541C823.195,323.624,833.493,323.11,843.758,323.116z"/>
		<path fill-rule="evenodd" clip-rule="evenodd" fill="#B7B7B7" d="M110.669,327.334c0.081,0.585,0.253,1.064,0.143,1.142
			c-19.657,13.818-11.903,34.473-13.158,52.857c-0.298,4.358,2.741,4.905,6.175,4.899c18.35-0.032,36.7-0.08,55.05,0.024
			c4.469,0.025,5.99-1.958,5.923-6.224c-0.15-9.641-0.479-19.312,0.111-28.916c0.455-7.411-2.07-10.331-9.447-9.391
			c-3.042,0.389-6.174,0.065-9.474,0.065c6.024-13.913,11.9-16.565,32.454-14.666c-2.146,5.55-7.748,8.051-10.429,12.718
			c0.417,0.562,0.809,1.438,1.079,1.401c10.561-1.401,12.986,3.645,12.313,13.402c-0.876,12.692-0.462,25.495-0.111,38.237
			c0.173,6.253-1.54,8.851-8.334,8.772c-27.989-0.319-55.984-0.284-83.974-0.021c-6.281,0.061-8.024-2.322-7.929-8.214
			c0.267-16.479,0.027-32.967,0.112-49.452c0.059-11.566,6.112-17.49,17.898-17.406
			C102.947,326.594,106.992,325.569,110.669,327.334z"/>
		<path fill-rule="evenodd" clip-rule="evenodd" fill="#B8B8B8" d="M144.309,327.613c-9.324,14.219-14.787,16.441-32.034,13.032
			C121.414,326.518,126.916,324.279,144.309,327.613z"/>
		<path fill-rule="evenodd" clip-rule="evenodd" fill="#B7B7B7" d="M386.492,349.181c-14.478,8.032-27.616,9.824-41.972,3.208
			c-9.76-4.495-10.19-3.562-10.254,6.782c-0.146,23.143-0.042,22.819,21.98,29.913c10.418,3.356,18.883-1.748,27.837-4.596
			c17.221-5.479,14.459-2.181,14.309-19.375c-0.205-23.41,4.323-17.498-18.894-25.511c-10.209-3.521-20.546-6.676-30.856-11.027
			c9.98-4.23,19.191-10.487,31.026-5.85c9.24,3.62,18.79,6.495,28.318,9.313c4.833,1.43,7.167,3.649,7.041,9.101
			c-0.336,14.602-0.325,29.223,0,43.824c0.112,5.059-2.036,7.103-6.461,8.491c-13.334,4.186-26.592,8.616-39.834,13.084
			c-3.737,1.262-7.225,1.035-10.896-0.208c-10.884-3.685-21.737-7.509-32.775-10.675c-5.919-1.697-7.539-4.894-7.342-10.749
			c0.417-12.42,0.121-24.863,0.128-37.296c0.007-10.444,7.252-17.554,17.476-14.841
			C352.298,337.278,368.841,343.424,386.492,349.181z"/>
		<path fill-rule="evenodd" clip-rule="evenodd" fill="#B7B7B7" d="M857.026,146.513c-4.856-5.6-9.661-11.248-14.601-16.773
			c-1.676-1.876-3.717-3.812-6.188-0.99c-2.05,2.339-0.182,4.001,1.329,5.543c4.352,4.443,8.79,8.802,13.147,13.239
			c2.697,2.746,3.067,5.053-1.71,5.075c-7.903,0.037-16.354,2.003-22.148-6.162c-1.418-1.996-3.43-5.103-6.717-1.878
			c-3.138,3.076-0.268,4.849,1.453,6.947c4.379,5.34,9.462,8.24,16.884,7.706c9.592-0.689,19.269-0.168,28.91-0.168
			c17.78,0,17.874,0.049,29.254,15.021c-2.66,2.401-5.883,1.141-8.752,1.167c-16.48,0.146-33.021-0.762-49.428,0.35
			c-11.826,0.802-20.044-3.219-27.386-11.904c-3.657-4.328-5.506-7.503-0.238-11.324c5.652-4.098,4.448-7.455-0.276-11.569
			c-5.617-4.889-10.477-10.637-15.975-15.674c-3.554-3.254-4.916-6.935-4.483-11.591c0.355-3.813-1.193-8.719,5.362-8.563
			c5.057,0.122,10.72-1.613,11.383,6.924c0.454,5.844,5.516,9.332,10.533,11.94c1.022,0.53,14.781-13.206,14.231-14.223
			c-2.966-5.495-6.526-10.594-13.572-10.982c-4.651-0.257-9.445-0.736-13.97,0.06c-13.378,2.354-20.216-6.136-28.441-16.279
			c17.86,0,34.173-0.013,50.486,0.011c3.14,0.003,4.97,2.313,6.944,4.262c4.206,4.151,8.515,8.21,12.504,12.562
			c5.219,5.688,10.085,11.868,16.867,1.667c1.007-1.513,2.776-2.186,4.943-1.356c5.531,2.12,15.878,16.487,15.915,22.53
			c0.05,7.773-0.21,15.557,0.071,23.321c0.217,5.988-2.863,7.354-8.067,7.359c-5.094,0.005-8.54-1.063-8.277-7.146
			c0.214-4.966-0.474-10.014,0.146-14.912c0.984-7.795-2.567-13.045-8.158-17.614c-1.961-1.603-3.611-3.633-6.305-1.116
			c-2.725,2.55-1.214,4.578,0.897,6.116c9.62,7.006,7.192,16.689,6.56,26C859.111,144.899,858.069,145.705,857.026,146.513z"/>
		<path fill-rule="evenodd" clip-rule="evenodd" fill="#B7B7B7" d="M183.161,112.078c1.373,7.97-1.331,9.031-8.275,5.278
			c-12.28-6.636-25.001-12.455-37.303-19.054c-4.646-2.494-8.348-2.394-12.942,0.067c-11.757,6.302-23.698,12.285-35.771,17.955
			c-2.822,1.325-7.305,6.344-9.098,1.79c-1.734-4.404-3.649-12.267,1.916-15.404c15.385-8.677,31.429-16.197,47.287-24.021
			c2.753-1.358,5.429,0.25,7.944,1.517c13.58,6.842,27.043,13.932,40.803,20.39C183.153,103.144,183.745,107.034,183.161,112.078z"
			/>
		<path fill-rule="evenodd" clip-rule="evenodd" fill="#B7B7B7" d="M79.225,142.052c-1.563-6.561,1.811-9.968,7.604-12.691
			c12.909-6.069,25.626-12.559,38.265-19.176c4.316-2.258,7.999-2.193,12.257,0.02c13.211,6.864,26.584,13.416,39.844,20.186
			c5.207,2.658,8.369,12.263,5.933,17.475c-1.841,3.938-4.242,1.105-6.064,0.208c-13.361-6.566-26.723-13.144-39.885-20.099
			c-4.33-2.288-7.8-2.228-12.096,0.047c-12.607,6.676-25.559,12.699-38.131,19.437C80.198,151.077,77.934,149.592,79.225,142.052z"
			/>
		<path fill-rule="evenodd" clip-rule="evenodd" fill="#B8B8B8" d="M183.274,172.848c1.135,6.577-1.045,8.154-7.842,4.5
			c-12.289-6.606-25.003-12.42-37.29-19.028c-4.892-2.633-8.816-2.758-13.775-0.093c-12.836,6.896-26.045,13.095-38.979,19.816
			c-4.835,2.51-6.235,1.686-6.483-3.905c-0.322-7.213,1.153-12.026,8.599-15.248c12.505-5.411,24.56-11.896,36.616-18.286
			c4.873-2.583,9.021-2.706,13.949-0.086c12.321,6.55,24.908,12.601,37.343,18.939C183.356,163.506,183.321,163.578,183.274,172.848
			z"/>
		<path fill-rule="evenodd" clip-rule="evenodd" fill="#B7B7B7" d="M583.527,403.822c-1.75,0.626-3.721,0.932-5.226,1.935
			c-6.362,4.244-11.458,2.362-16.419-2.598c-4.834-4.836-5.802-9.757-2.098-15.725c3.426-5.522,1.893-9.09-4.669-10.636
			c-6.604-1.557-9.534-5.71-9.527-12.843c0.009-7.161,3.035-11.233,9.626-12.761c6.701-1.556,7.848-5.285,4.534-10.699
			c-3.657-5.974-2.689-10.842,2.175-15.711c5.037-5.042,10.053-6.58,16.444-2.497c4.921,3.143,8.633,2.188,10.18-4.067
			c1.695-6.853,5.621-10.314,13.303-10.229c7.281,0.082,11.081,3.395,12.618,9.846c1.647,6.917,5.656,7.464,10.816,4.238
			c6.135-3.833,10.885-2.257,15.635,2.507c4.703,4.715,6.624,9.436,2.645,15.591c-3.883,6.005-1.835,9.539,4.947,11.211
			c6.193,1.527,9.001,5.509,9.062,12.23c0.063,6.979-2.438,11.486-9.188,13.076c-7.031,1.655-8.54,5.475-4.757,11.282
			c4.059,6.231,1.854,10.905-2.735,15.598c-4.761,4.867-9.62,6.1-15.678,2.345c-5.26-3.262-9.152-2.478-10.772,4.353
			c-1.539,6.484-5.425,9.691-12.672,9.766c-7.705,0.081-11.311-3.521-13.362-10.26C587.669,407.347,587.347,404.032,583.527,403.822
			z"/>
		<path fill-rule="evenodd" clip-rule="evenodd" fill="#B7B7B7" d="M625.309,101.197c7.813,0,13.25,0.151,18.674-0.042
			c5.354-0.191,7.97,1.675,7.91,7.503c-0.202,19.889-0.162,39.783-0.009,59.674c0.037,4.907-1.232,7.56-6.765,7.381
			c-8.693-0.28-17.411-0.306-26.104,0.006c-5.974,0.213-8.59-4.295-12.209-7.509c-2.451-2.177-5.332-6.299-8.259-1.865
			c-7.439,11.271-18.566,9.293-29.277,9.303c-17.92,0.013-17.92,0.004-17.92-17.546c0-15.541,0.438-31.099-0.174-46.614
			c-0.335-8.47,2.831-11.195,10.797-10.384c4.453,0.454,8.991,0.082,15.887,0.082c-6.72-7.029-11.688-12.227-16.966-17.747
			c14.834-4.891,25.088,0.264,33.139,11.147c5.162,6.977,9.903,7.033,15.094,0.018c8.047-10.872,18.298-16.069,33.161-11.188
			C637.007,88.946,632.042,94.147,625.309,101.197z"/>
		<path fill-rule="evenodd" clip-rule="evenodd" fill="#B7B7B7" d="M425.952,129.006c0,2.175,0,4.35,0,6.523
			c-0.003,13.005,0,13.366-13.384,13.479c-5.53,0.045-7.275,3.254-9.713,6.966c-13.603,20.714-36.217,29.215-58.949,22.406
			c-22.187-6.647-37.284-27.093-37.097-50.238c0.182-22.257,15.043-42.038,36.6-48.714c22.746-7.044,45.722,1.079,59.018,21.852
			c3.53,5.517,7.116,8.145,13.335,7.137c8.333-1.349,11.375,2.2,10.265,10.349C425.57,122.121,425.952,125.59,425.952,129.006z"/>
		<path fill-rule="evenodd" clip-rule="evenodd" fill="#FEFEFE" d="M576.594,376.29c-0.137-4.535-4.595-4.087-7.176-5.784
			c-3.111-2.047-8.913-1.258-8.554-6.898c0.304-4.771,5.246-4.869,8.517-5.896c7.072-2.223,8.234-5.792,4.795-12.234
			c-1.562-2.926-4.679-6.93-1.072-10.216c3.426-3.119,7.395-0.166,10.303,1.498c6.965,3.987,9.835,1.106,12.02-5.317
			c1.102-3.239,1.135-8.154,6.142-8.176c5.028-0.021,5.195,4.884,6.147,8.14c2.232,7.629,6.093,8.839,12.847,5.021
			c2.685-1.518,6.347-4.146,9.473-1.24c3.616,3.361,0.639,7.395-1.012,10.205c-4.298,7.321-1.378,10.435,5.539,12.626
			c3.278,1.037,8.14,1.28,7.763,6.434c-0.314,4.314-4.645,4.601-7.716,5.56c-6.852,2.137-9.96,5.192-5.606,12.579
			c1.655,2.809,4.631,6.836,1.068,10.214c-3.101,2.94-6.873,0.418-9.453-1.192c-7.749-4.832-10.942-1.303-13.194,5.845
			c-0.957,3.037-1.229,7.317-5.811,7.343c-4.603,0.025-4.757-4.287-5.866-7.294c-2.207-5.978-4.279-11.032-12.278-6.264
			c-2.871,1.714-6.967,4.686-10.292,1.559c-3.834-3.6,0.372-7.427,1.232-11.109C574.827,379.899,575.786,378.237,576.594,376.29z"/>
		<path fill-rule="evenodd" clip-rule="evenodd" fill="#FEFEFE" d="M567.823,139.104c0-21.499,0-21.499,21.336-21.499
			c13.046,0.002,26.095,0.161,39.138-0.069c5.146-0.089,7.294,1.657,7.123,6.964c-0.277,8.69,0.077,17.397-0.144,26.089
			c-0.081,3.163,1.765,7.66-2.371,9.082c-4.323,1.486-9.226,1.774-13.077-2.063c-4.401-4.384-9.084-8.526-13.127-13.219
			c-3.899-4.526-6.805-3.97-10.425,0.23c-3.438,3.989-7.663,7.301-11.074,11.312c-4.02,4.725-9.188,5.531-14.348,3.956
			c-5.348-1.632-2.487-6.884-2.942-10.542C567.494,145.979,567.823,142.521,567.823,139.104z"/>
		<path fill-rule="evenodd" clip-rule="evenodd" fill="#FEFEFE" d="M323.061,127.947c0.25-14.565,7.438-25.609,21.026-31.727
			c13.6-6.125,26.672-3.837,38.376,5.48c1.63,1.298,4.059,2.68,3.298,5.083c-0.857,2.705-3.714,1.535-5.691,1.589
			c-5.892,0.168-11.793-0.025-17.688,0.086c-14.797,0.277-23.968,8.243-23.81,20.57c0.158,12.296,9.3,19.915,24.255,20.133
			c5.584,0.08,11.177-0.123,16.756,0.083c2.228,0.082,5.592-1.353,6.296,1.993c0.441,2.096-2.034,3.637-3.752,4.966
			c-11.835,9.164-24.903,11.286-38.438,4.995C330.154,154.909,323.133,143.782,323.061,127.947z"/>
		<path fill-rule="evenodd" clip-rule="evenodd" fill="#FEFEFE" d="M382.486,132.632c-7.411,0.002-14.822,0.053-22.231-0.025
			c-2.69-0.027-5.066-0.892-4.777-4.226c0.237-2.729,2.428-3.371,4.714-3.378c14.821-0.042,29.643-0.037,44.464-0.022
			c2.799,0.002,4.922,0.908,4.671,4.25c-0.212,2.849-2.313,3.374-4.608,3.385C397.308,132.656,389.897,132.631,382.486,132.632z"/>
		<path fill-rule="evenodd" clip-rule="evenodd" fill="#B8B8B8" d="M619.719,349.778c-4.598,6.072-1.305,9.101,4.502,12.23
			c3.113,1.68,0.635,4.536-1.852,5.418c-4.878,1.729-5.908,4.223-3.63,9.033c2.171,4.588-0.023,6.871-4.69,4.687
			c-4.803-2.246-7.177-1.157-9.064,3.677c-1.527,3.912-4.761,4.574-6.547,0.34c-2.157-5.114-4.551-6.441-9.764-3.859
			c-4.065,2.013-6.394-0.366-4.364-4.406c2.634-5.247,1.303-7.923-3.937-9.675c-1.772-0.594-3.048-4.072-2.347-4.03
			c12.495,0.749,0.218-17.621,11.962-15.743c5.063,0.809,6.449-0.42,8.167-4.204c1.698-3.737,4.701-4.809,6.579-0.481
			c2.173,5.008,4.553,6.876,9.688,3.87C617.112,345.061,619.166,346.034,619.719,349.778z"/>
		<path fill-rule="evenodd" clip-rule="evenodd" fill="#FDFDFD" d="M607.315,364.331c-0.474,3.83-2.732,5.571-6.356,5.289
			c-3.264-0.254-5.021-2.307-4.998-5.573c0.027-3.744,2.092-5.793,5.816-5.698C605.548,358.445,607.243,360.755,607.315,364.331z"/>
	</g>
</g>
</svg>
